<mxfile host="Electron" modified="2025-04-07T22:32:07.767Z" agent="Mozilla/5.0 (Windows NT 10.0; Win64; x64) AppleWebKit/537.36 (KHTML, like Gecko) draw.io/24.4.8 Chrome/124.0.6367.207 Electron/30.0.6 Safari/537.36" etag="5_Rr768BP3uGLUUCf5-s" version="24.4.8" type="device">
  <diagram name="Page-1" id="sYv8QMfPj26I9ktPTzGd">
    <mxGraphModel dx="1436" dy="968" grid="1" gridSize="10" guides="1" tooltips="1" connect="1" arrows="1" fold="1" page="0" pageScale="1" pageWidth="850" pageHeight="1100" math="0" shadow="0">
      <root>
        <mxCell id="0" />
        <mxCell id="1" parent="0" />
        <mxCell id="QJa4kQ48RNfTvBzdznc--43" value="" style="rounded=0;whiteSpace=wrap;html=1;" vertex="1" parent="1">
          <mxGeometry x="120" y="180" width="1180" height="620" as="geometry" />
        </mxCell>
        <mxCell id="QJa4kQ48RNfTvBzdznc--34" value="" style="rounded=0;whiteSpace=wrap;html=1;fillColor=#008a00;fontColor=#ffffff;strokeColor=#005700;" vertex="1" parent="1">
          <mxGeometry x="780" y="260" width="440" height="290" as="geometry" />
        </mxCell>
        <mxCell id="QJa4kQ48RNfTvBzdznc--33" value="" style="rounded=0;whiteSpace=wrap;html=1;fillColor=#a20025;fontColor=#ffffff;strokeColor=none;" vertex="1" parent="1">
          <mxGeometry x="460" y="340" width="300" height="130" as="geometry" />
        </mxCell>
        <mxCell id="QJa4kQ48RNfTvBzdznc--32" value="" style="rounded=0;whiteSpace=wrap;html=1;fillColor=#a20025;dashed=1;fontColor=#ffffff;strokeColor=none;" vertex="1" parent="1">
          <mxGeometry x="380" y="470" width="280" height="310" as="geometry" />
        </mxCell>
        <mxCell id="QJa4kQ48RNfTvBzdznc--30" value="" style="rounded=0;whiteSpace=wrap;html=1;fillColor=#6a00ff;dashed=1;fontColor=#ffffff;strokeColor=#3700CC;" vertex="1" parent="1">
          <mxGeometry x="140" y="340" width="270" height="120" as="geometry" />
        </mxCell>
        <mxCell id="QJa4kQ48RNfTvBzdznc--15" style="edgeStyle=orthogonalEdgeStyle;rounded=0;orthogonalLoop=1;jettySize=auto;html=1;entryX=0;entryY=0.5;entryDx=0;entryDy=0;" edge="1" parent="1" source="QJa4kQ48RNfTvBzdznc--3" target="QJa4kQ48RNfTvBzdznc--5">
          <mxGeometry relative="1" as="geometry" />
        </mxCell>
        <mxCell id="QJa4kQ48RNfTvBzdznc--3" value="Tank1" style="whiteSpace=wrap;html=1;aspect=fixed;" vertex="1" parent="1">
          <mxGeometry x="160" y="360" width="80" height="80" as="geometry" />
        </mxCell>
        <mxCell id="QJa4kQ48RNfTvBzdznc--13" style="edgeStyle=orthogonalEdgeStyle;rounded=0;orthogonalLoop=1;jettySize=auto;html=1;entryX=0;entryY=0.5;entryDx=0;entryDy=0;" edge="1" parent="1" source="QJa4kQ48RNfTvBzdznc--4" target="QJa4kQ48RNfTvBzdznc--10">
          <mxGeometry relative="1" as="geometry" />
        </mxCell>
        <mxCell id="QJa4kQ48RNfTvBzdznc--4" value="Tank2" style="whiteSpace=wrap;html=1;aspect=fixed;" vertex="1" parent="1">
          <mxGeometry x="480" y="360" width="80" height="80" as="geometry" />
        </mxCell>
        <mxCell id="QJa4kQ48RNfTvBzdznc--14" style="edgeStyle=orthogonalEdgeStyle;rounded=0;orthogonalLoop=1;jettySize=auto;html=1;" edge="1" parent="1" source="QJa4kQ48RNfTvBzdznc--5" target="QJa4kQ48RNfTvBzdznc--4">
          <mxGeometry relative="1" as="geometry" />
        </mxCell>
        <mxCell id="QJa4kQ48RNfTvBzdznc--5" value="Pump1" style="ellipse;whiteSpace=wrap;html=1;aspect=fixed;" vertex="1" parent="1">
          <mxGeometry x="320" y="360" width="80" height="80" as="geometry" />
        </mxCell>
        <mxCell id="QJa4kQ48RNfTvBzdznc--16" style="edgeStyle=orthogonalEdgeStyle;rounded=0;orthogonalLoop=1;jettySize=auto;html=1;entryX=0.5;entryY=1;entryDx=0;entryDy=0;" edge="1" parent="1" source="QJa4kQ48RNfTvBzdznc--6" target="QJa4kQ48RNfTvBzdznc--4">
          <mxGeometry relative="1" as="geometry" />
        </mxCell>
        <mxCell id="QJa4kQ48RNfTvBzdznc--6" value="Pump2" style="ellipse;whiteSpace=wrap;html=1;aspect=fixed;" vertex="1" parent="1">
          <mxGeometry x="400" y="520" width="80" height="80" as="geometry" />
        </mxCell>
        <mxCell id="QJa4kQ48RNfTvBzdznc--17" style="edgeStyle=orthogonalEdgeStyle;rounded=0;orthogonalLoop=1;jettySize=auto;html=1;entryX=0.5;entryY=1;entryDx=0;entryDy=0;" edge="1" parent="1" source="QJa4kQ48RNfTvBzdznc--7" target="QJa4kQ48RNfTvBzdznc--4">
          <mxGeometry relative="1" as="geometry" />
        </mxCell>
        <mxCell id="QJa4kQ48RNfTvBzdznc--7" value="Pump3" style="ellipse;whiteSpace=wrap;html=1;aspect=fixed;" vertex="1" parent="1">
          <mxGeometry x="560" y="520" width="80" height="80" as="geometry" />
        </mxCell>
        <mxCell id="QJa4kQ48RNfTvBzdznc--18" style="edgeStyle=orthogonalEdgeStyle;rounded=0;orthogonalLoop=1;jettySize=auto;html=1;entryX=0.5;entryY=1;entryDx=0;entryDy=0;" edge="1" parent="1" source="QJa4kQ48RNfTvBzdznc--8" target="QJa4kQ48RNfTvBzdznc--6">
          <mxGeometry relative="1" as="geometry" />
        </mxCell>
        <mxCell id="QJa4kQ48RNfTvBzdznc--8" value="Tank3" style="whiteSpace=wrap;html=1;aspect=fixed;" vertex="1" parent="1">
          <mxGeometry x="400" y="680" width="80" height="80" as="geometry" />
        </mxCell>
        <mxCell id="QJa4kQ48RNfTvBzdznc--19" style="edgeStyle=orthogonalEdgeStyle;rounded=0;orthogonalLoop=1;jettySize=auto;html=1;entryX=0.5;entryY=1;entryDx=0;entryDy=0;" edge="1" parent="1" source="QJa4kQ48RNfTvBzdznc--9" target="QJa4kQ48RNfTvBzdznc--7">
          <mxGeometry relative="1" as="geometry" />
        </mxCell>
        <mxCell id="QJa4kQ48RNfTvBzdznc--9" value="Tank4" style="whiteSpace=wrap;html=1;aspect=fixed;" vertex="1" parent="1">
          <mxGeometry x="560" y="680" width="80" height="80" as="geometry" />
        </mxCell>
        <mxCell id="QJa4kQ48RNfTvBzdznc--12" style="edgeStyle=orthogonalEdgeStyle;rounded=0;orthogonalLoop=1;jettySize=auto;html=1;entryX=1;entryY=0.5;entryDx=0;entryDy=0;" edge="1" parent="1" source="QJa4kQ48RNfTvBzdznc--10" target="QJa4kQ48RNfTvBzdznc--11">
          <mxGeometry relative="1" as="geometry" />
        </mxCell>
        <mxCell id="QJa4kQ48RNfTvBzdznc--10" value="Pump4" style="ellipse;whiteSpace=wrap;html=1;aspect=fixed;" vertex="1" parent="1">
          <mxGeometry x="640" y="360" width="80" height="80" as="geometry" />
        </mxCell>
        <mxCell id="QJa4kQ48RNfTvBzdznc--24" style="edgeStyle=orthogonalEdgeStyle;rounded=0;orthogonalLoop=1;jettySize=auto;html=1;entryX=0;entryY=0.5;entryDx=0;entryDy=0;" edge="1" parent="1" source="QJa4kQ48RNfTvBzdznc--11" target="QJa4kQ48RNfTvBzdznc--21">
          <mxGeometry relative="1" as="geometry" />
        </mxCell>
        <mxCell id="QJa4kQ48RNfTvBzdznc--25" style="edgeStyle=orthogonalEdgeStyle;rounded=0;orthogonalLoop=1;jettySize=auto;html=1;entryX=0;entryY=0.5;entryDx=0;entryDy=0;" edge="1" parent="1" source="QJa4kQ48RNfTvBzdznc--11" target="QJa4kQ48RNfTvBzdznc--20">
          <mxGeometry relative="1" as="geometry" />
        </mxCell>
        <mxCell id="QJa4kQ48RNfTvBzdznc--11" value="" style="triangle;whiteSpace=wrap;html=1;rotation=-180;" vertex="1" parent="1">
          <mxGeometry x="800" y="360" width="80" height="80" as="geometry" />
        </mxCell>
        <mxCell id="QJa4kQ48RNfTvBzdznc--26" style="edgeStyle=orthogonalEdgeStyle;rounded=0;orthogonalLoop=1;jettySize=auto;html=1;entryX=0;entryY=0.5;entryDx=0;entryDy=0;" edge="1" parent="1" source="QJa4kQ48RNfTvBzdznc--20" target="QJa4kQ48RNfTvBzdznc--23">
          <mxGeometry relative="1" as="geometry" />
        </mxCell>
        <mxCell id="QJa4kQ48RNfTvBzdznc--20" value="Tank5" style="whiteSpace=wrap;html=1;aspect=fixed;" vertex="1" parent="1">
          <mxGeometry x="960" y="280" width="80" height="80" as="geometry" />
        </mxCell>
        <mxCell id="QJa4kQ48RNfTvBzdznc--27" style="edgeStyle=orthogonalEdgeStyle;rounded=0;orthogonalLoop=1;jettySize=auto;html=1;entryX=0;entryY=0.5;entryDx=0;entryDy=0;" edge="1" parent="1" source="QJa4kQ48RNfTvBzdznc--21" target="QJa4kQ48RNfTvBzdznc--22">
          <mxGeometry relative="1" as="geometry" />
        </mxCell>
        <mxCell id="QJa4kQ48RNfTvBzdznc--21" value="Tank6" style="whiteSpace=wrap;html=1;aspect=fixed;" vertex="1" parent="1">
          <mxGeometry x="960" y="440" width="80" height="80" as="geometry" />
        </mxCell>
        <mxCell id="QJa4kQ48RNfTvBzdznc--29" style="edgeStyle=orthogonalEdgeStyle;rounded=0;orthogonalLoop=1;jettySize=auto;html=1;entryX=0.5;entryY=0;entryDx=0;entryDy=0;" edge="1" parent="1" source="QJa4kQ48RNfTvBzdznc--22" target="QJa4kQ48RNfTvBzdznc--3">
          <mxGeometry relative="1" as="geometry">
            <Array as="points">
              <mxPoint x="1280" y="480" />
              <mxPoint x="1280" y="200" />
              <mxPoint x="200" y="200" />
            </Array>
          </mxGeometry>
        </mxCell>
        <mxCell id="QJa4kQ48RNfTvBzdznc--22" value="Pump6" style="ellipse;whiteSpace=wrap;html=1;aspect=fixed;" vertex="1" parent="1">
          <mxGeometry x="1120" y="440" width="80" height="80" as="geometry" />
        </mxCell>
        <mxCell id="QJa4kQ48RNfTvBzdznc--28" style="edgeStyle=orthogonalEdgeStyle;rounded=0;orthogonalLoop=1;jettySize=auto;html=1;entryX=0.5;entryY=0;entryDx=0;entryDy=0;" edge="1" parent="1" source="QJa4kQ48RNfTvBzdznc--23" target="QJa4kQ48RNfTvBzdznc--3">
          <mxGeometry relative="1" as="geometry">
            <Array as="points">
              <mxPoint x="1160" y="200" />
              <mxPoint x="200" y="200" />
            </Array>
          </mxGeometry>
        </mxCell>
        <mxCell id="QJa4kQ48RNfTvBzdznc--23" value="Pump5" style="ellipse;whiteSpace=wrap;html=1;aspect=fixed;" vertex="1" parent="1">
          <mxGeometry x="1120" y="280" width="80" height="80" as="geometry" />
        </mxCell>
        <mxCell id="QJa4kQ48RNfTvBzdznc--35" value="Splitter" style="text;html=1;align=center;verticalAlign=middle;whiteSpace=wrap;rounded=0;" vertex="1" parent="1">
          <mxGeometry x="820" y="385" width="60" height="30" as="geometry" />
        </mxCell>
        <mxCell id="QJa4kQ48RNfTvBzdznc--36" value="PLC1" style="text;html=1;align=center;verticalAlign=middle;whiteSpace=wrap;rounded=0;fillColor=#6a00ff;fontColor=#ffffff;strokeColor=#3700CC;" vertex="1" parent="1">
          <mxGeometry x="350" y="310" width="60" height="30" as="geometry" />
        </mxCell>
        <mxCell id="QJa4kQ48RNfTvBzdznc--37" value="PLC1" style="text;html=1;align=center;verticalAlign=middle;whiteSpace=wrap;rounded=0;fillColor=#a20025;fontColor=#ffffff;strokeColor=#6F0000;" vertex="1" parent="1">
          <mxGeometry x="460" y="310" width="60" height="30" as="geometry" />
        </mxCell>
        <mxCell id="QJa4kQ48RNfTvBzdznc--38" value="PLC1" style="text;html=1;align=center;verticalAlign=middle;whiteSpace=wrap;rounded=0;fillColor=#008a00;fontColor=#ffffff;strokeColor=#005700;" vertex="1" parent="1">
          <mxGeometry x="780" y="230" width="60" height="30" as="geometry" />
        </mxCell>
        <mxCell id="QJa4kQ48RNfTvBzdznc--39" value="Waste Water Collection" style="text;html=1;align=center;verticalAlign=middle;whiteSpace=wrap;rounded=0;fillColor=#6a00ff;fontColor=#ffffff;strokeColor=none;" vertex="1" parent="1">
          <mxGeometry x="140" y="460" width="180" height="30" as="geometry" />
        </mxCell>
        <mxCell id="QJa4kQ48RNfTvBzdznc--40" value="Water Treatment" style="text;html=1;align=center;verticalAlign=middle;whiteSpace=wrap;rounded=0;fillColor=#a20025;fontColor=#ffffff;strokeColor=none;" vertex="1" parent="1">
          <mxGeometry x="630" y="310" width="130" height="30" as="geometry" />
        </mxCell>
        <mxCell id="QJa4kQ48RNfTvBzdznc--41" value="Clean Water Storage &amp;amp; &quot;Usage&quot;" style="text;html=1;align=center;verticalAlign=middle;whiteSpace=wrap;rounded=0;fillColor=#008a00;fontColor=#ffffff;strokeColor=none;" vertex="1" parent="1">
          <mxGeometry x="780" y="550" width="220" height="30" as="geometry" />
        </mxCell>
      </root>
    </mxGraphModel>
  </diagram>
</mxfile>
